<svg width="55" height="55" viewBox="0 0 55 55" fill="none" xmlns="http://www.w3.org/2000/svg">
<path fill-rule="evenodd" clip-rule="evenodd" d="M31.3497 9.17531C30.3102 9.12611 29.2716 9.28639 28.2951 9.64659C27.3189 10.0068 26.4249 10.5596 25.6666 11.2722C24.9271 12.0586 24.3567 12.9881 23.9902 14.0034C23.6238 15.0186 23.4689 16.0982 23.5354 17.1755V21.6351H18.3333V27.692H23.5354V43.2226H29.8145V27.692H34.9937L35.7958 21.6351H29.8145V17.7691C29.7609 16.9868 29.9706 16.2091 30.4104 15.5599C30.7333 15.2759 31.1125 15.0635 31.5232 14.9367C31.9341 14.8099 32.3668 14.7716 32.7935 14.8243H36.002V9.42052C34.4588 9.23148 32.9044 9.14953 31.3497 9.17531Z" fill="white"/>
</svg>
