<svg width="55" height="55" viewBox="0 0 55 55" fill="none" xmlns="http://www.w3.org/2000/svg">
<path fill-rule="evenodd" clip-rule="evenodd" d="M27.1792 30.108C25.967 30.1066 24.7927 29.6849 23.8563 28.9149C22.9202 28.1449 22.2797 27.0743 22.0442 25.8849C21.8087 24.6958 21.9926 23.4619 22.5648 22.3931C23.137 21.3244 24.0621 20.4871 25.1823 20.0238C26.3027 19.5605 27.5487 19.4998 28.7085 19.8522C29.8685 20.2045 30.8704 20.9481 31.5437 21.9562C32.217 22.9642 32.5202 24.1746 32.4013 25.381C32.2823 26.5873 31.7488 27.7153 30.8917 28.5726C30.4096 29.0673 29.8319 29.4588 29.1936 29.7225C28.5554 29.9865 27.87 30.1178 27.1792 30.108ZM27.1792 16.8163C26.1196 16.8136 25.0695 17.0203 24.0901 17.4244C23.1104 17.8285 22.2203 18.4222 21.4707 19.1713C20.7212 19.9204 20.127 20.8102 19.7223 21.7896C19.3177 22.769 19.1104 23.8187 19.1125 24.8784C19.1136 26.2046 19.4416 27.5099 20.0675 28.6791C20.6935 29.8483 21.598 30.845 22.701 31.5811C23.8041 32.3174 25.0716 32.7702 26.3914 32.8997C27.7114 33.0292 29.0428 32.8314 30.268 32.3236C31.4928 31.8157 32.5741 31.0139 33.4153 29.9886C34.2566 28.9635 34.8318 27.7467 35.0908 26.4459C35.3495 25.1454 35.2837 23.8009 34.899 22.5318C34.5144 21.2627 33.8228 20.108 32.8855 19.1699C32.1474 18.4058 31.2596 17.8019 30.278 17.3959C29.2963 16.9898 28.2414 16.7902 27.1792 16.8095V16.8163ZM35.5667 14.6072C35.319 14.6025 35.0729 14.6491 34.8442 14.7442C34.6155 14.8392 34.4088 14.9806 34.2374 15.1595C33.8851 15.5126 33.6876 15.991 33.6876 16.4898C33.6876 16.9885 33.8851 17.467 34.2374 17.8201C34.4117 17.9952 34.6189 18.1342 34.8469 18.2291C35.0752 18.3239 35.3197 18.3728 35.5667 18.3728C35.8138 18.3728 36.0585 18.3239 36.2866 18.2291C36.5146 18.1342 36.7217 17.9952 36.8959 17.8201C37.2481 17.467 37.4459 16.9885 37.4459 16.4898C37.4459 15.991 37.2481 15.5126 36.8959 15.1595C36.7259 14.9777 36.5198 14.8333 36.2911 14.7355C36.0622 14.6377 35.8156 14.5885 35.5667 14.5911V14.6072ZM30.9147 11.9786C31.3959 11.9786 32.0605 12.0061 32.8855 12.0405C33.5918 12.0635 34.2962 12.1316 34.9938 12.2445C35.4859 12.3251 35.9692 12.4517 36.4376 12.6226C37.1152 12.8916 37.731 13.2955 38.2478 13.8097C38.7661 14.3206 39.172 14.9341 39.4397 15.6109C39.6051 16.0864 39.7277 16.5757 39.8063 17.073C39.9326 17.7689 40.0016 18.4741 40.0126 19.1813C40.0584 20.0063 40.0813 20.6648 40.0813 21.1567V28.6047C40.0813 29.0951 40.0584 29.7535 40.0126 30.5801C40.0016 31.2873 39.9328 31.9924 39.8063 32.6884C39.728 33.1857 39.6051 33.675 39.4397 34.1505C39.1722 34.8274 38.7664 35.4409 38.2478 35.9517C37.7312 36.4662 37.1155 36.87 36.4376 37.1388C35.9694 37.31 35.4859 37.4365 34.9938 37.5169C34.2962 37.6302 33.5918 37.6982 32.8855 37.7209C32.0605 37.7553 31.3959 37.7759 30.9147 37.7828C30.4334 37.7896 29.7001 37.7828 28.7376 37.7828H27.1792H25.6207C24.6582 37.7828 23.948 37.7828 23.4667 37.7828C22.9855 37.7828 22.298 37.7553 21.473 37.7209C20.7666 37.6982 20.0622 37.6302 19.3645 37.5169C18.8725 37.4365 18.3891 37.31 17.9208 37.1388C17.243 36.87 16.6272 36.4662 16.1106 35.9517C15.5921 35.4409 15.1862 34.8274 14.9188 34.1505C14.7533 33.675 14.6305 33.1857 14.5521 32.6884C14.4257 31.9924 14.3568 31.2873 14.3459 30.5801C14.3001 29.7551 14.2771 29.0967 14.2771 28.6047V26.4367C14.2771 25.488 14.3 24.9678 14.3 24.8715C14.3 24.7753 14.2771 24.2551 14.2771 23.3063V21.1476C14.2771 20.6572 14.3001 19.9987 14.3459 19.1722C14.3568 18.4649 14.4257 17.7598 14.5521 17.0638C14.6306 16.5665 14.7534 16.0772 14.9188 15.6017C15.1864 14.9249 15.5923 14.3114 16.1106 13.8005C16.6274 13.2863 17.2432 12.8825 17.9208 12.6134C18.3892 12.4425 18.8725 12.316 19.3645 12.2353C20.0623 12.1225 20.7666 12.0544 21.473 12.0313C22.298 11.9977 22.9626 11.9771 23.4667 11.9695C23.948 11.9695 24.6582 11.9695 25.6207 11.9695H27.1792H28.7376C29.7001 11.9626 30.4105 11.9626 30.9147 11.9695V11.9786ZM42.7855 18.3953C42.8034 15.9603 41.903 13.608 40.2644 11.8067C38.4662 10.1544 36.1067 9.24753 33.6644 9.26987C32.4728 9.20112 30.2959 9.16675 27.1792 9.16675C24.0626 9.16675 21.8856 9.20112 20.6939 9.26987C18.2517 9.24753 15.8923 10.1544 14.0939 11.8067C12.4554 13.608 11.5551 15.9603 11.5728 18.3953C11.5041 19.5961 11.4584 21.7572 11.4584 24.8807C11.4584 28.0042 11.5041 30.1676 11.5728 31.3661C11.5551 33.801 12.4554 36.1534 14.0939 37.9547C15.8923 39.6069 18.2517 40.514 20.6939 40.4915C21.8856 40.5603 24.0626 40.5947 27.1792 40.5947C30.2959 40.5947 32.4728 40.5603 33.6644 40.4915C36.1067 40.514 38.4662 39.6069 40.2644 37.9547C41.903 36.1534 42.8034 33.801 42.7855 31.3661C42.8542 30.1653 42.9001 28.0042 42.9001 24.8807C42.9001 21.7572 42.8542 19.5961 42.7855 18.3953Z" fill="white"/>
</svg>
