<svg width="66" height="68" viewBox="0 0 66 68" fill="none" xmlns="http://www.w3.org/2000/svg">
<path d="M47.1698 42.7673H44.1887L43.1321 41.7176C46.8302 37.2853 49.0566 31.5312 49.0566 25.2716C49.0566 11.3139 38.0755 0 24.5283 0C10.9811 0 0 11.3139 0 25.2716C0 39.2293 10.9811 50.5432 24.5283 50.5432C30.6038 50.5432 36.1887 48.2493 40.4906 44.4391L41.5094 45.5277V48.5992L60.3774 68L66 62.207L47.1698 42.7673ZM24.5283 42.7673C15.1321 42.7673 7.54717 34.9525 7.54717 25.2716C7.54717 15.5906 15.1321 7.77587 24.5283 7.77587C33.9245 7.77587 41.5094 15.5906 41.5094 25.2716C41.5094 34.9525 33.9245 42.7673 24.5283 42.7673Z" fill="white"/>
<path d="M43.8363 43.122L43.9825 43.2673H44.1887H46.958L65.3036 62.2066L60.377 67.2825L42.0094 48.3962V45.5277V45.3303L41.8745 45.1861L40.8556 44.0974L40.5232 43.7423L40.159 44.0648C35.9436 47.7984 30.4751 50.0432 24.5283 50.0432C11.2712 50.0432 0.5 38.9673 0.5 25.2716C0.5 11.5759 11.2712 0.5 24.5283 0.5C37.7854 0.5 48.5566 11.5759 48.5566 25.2716C48.5566 31.4111 46.3732 37.0526 42.7482 41.3972L42.4545 41.7492L42.7797 42.0723L43.8363 43.122ZM7.04717 25.2716C7.04717 35.2145 14.842 43.2673 24.5283 43.2673C34.2146 43.2673 42.0094 35.2145 42.0094 25.2716C42.0094 15.3287 34.2146 7.27587 24.5283 7.27587C14.842 7.27587 7.04717 15.3287 7.04717 25.2716Z" stroke="black" stroke-opacity="0.1"/>
</svg>
