<svg width="89" height="121" viewBox="0 0 89 121" fill="none" xmlns="http://www.w3.org/2000/svg">
<path d="M88.7821 8.35988C88.6966 7.27499 87.7091 6.46167 86.576 6.54385C85.4433 6.62579 84.594 7.57161 84.6795 8.6565C85.1184 14.2205 84.4967 22.3359 79.0423 29.4005C73.5804 36.4753 65.8336 38.9365 61.6716 40.259C55.5083 42.2169 49.8505 42.7271 44.6028 42.5953C45.0626 41.645 45.3213 40.5875 45.3213 39.4729C45.3213 36.0026 42.831 33.0787 39.4721 32.2537V29.6852H50.4561C54.6154 29.6852 57.999 26.4448 57.999 22.462V20.3609C57.999 19.2727 57.0781 18.391 55.942 18.391H45.9308L50.0471 5.67645C50.4229 4.51571 50.2067 3.28871 49.4537 2.31058C48.7007 1.33244 47.5412 0.771502 46.2721 0.771502H35.3578C34.2217 0.771502 33.3008 1.65318 33.3008 2.74135C33.3008 3.82952 34.2217 4.71119 35.3578 4.71119H46.0523L41.6236 18.3913H33.1421L27.0814 2.08044C26.7008 1.05548 25.5236 0.521232 24.4538 0.884813C23.3832 1.24957 22.8246 2.37636 23.2052 3.40132L28.7752 18.3908H19.0508C17.9147 18.3908 16.9937 19.2725 16.9937 20.3606V22.4618C16.9937 26.4446 20.3773 29.685 24.5367 29.685H35.3583V32.3211C32.1268 33.2267 29.7585 36.0892 29.7585 39.4729C29.7585 40.0214 29.8223 40.5557 29.9406 41.0707C21.7714 39.9669 14.6675 39.4312 8.80809 44.6229C7.21335 46.0363 3.44934 49.9371 2.94401 55.6203C2.90978 56.0052 2.19566 65.0987 9.88282 70.0312C12.9447 71.9959 16.1197 72.5407 18.699 72.5407C19.7287 72.5407 20.6626 72.4539 21.457 72.3359C22.0537 73.9801 23.2541 75.355 24.8031 76.218C17.1942 80.2635 12.0323 88.0377 12.0323 96.9461C12.0323 101.355 13.3148 105.638 15.6926 109.344H9.90555C4.59473 109.344 0.274048 113.482 0.274048 118.567V118.668C0.274048 119.756 1.195 120.638 2.3311 120.638H72.6619C73.798 120.638 74.719 119.756 74.719 118.668V118.567C74.719 113.481 70.3985 109.344 65.0875 109.344H20.7154C17.7631 105.84 16.1464 101.472 16.1464 96.9461C16.1464 86.0548 25.3994 77.194 36.7728 77.194C48.1463 77.194 57.3996 86.0548 57.3996 96.9461C57.3996 99.0201 57.0661 101.062 56.408 103.015C56.0593 104.05 56.6532 105.16 57.7345 105.494C58.8161 105.828 59.9749 105.259 60.3238 104.224C61.1132 101.88 61.5137 99.4307 61.5137 96.9458C61.5137 88.3046 56.6568 80.7305 49.421 76.5916C52.0856 75.4761 53.9534 72.9289 53.9534 69.9706C53.9534 66.7199 51.6988 63.9646 48.6086 63.0614C48.0825 59.8116 46.0325 57.0395 43.1831 55.4327C44.4336 54.11 45.1964 52.3572 45.1964 50.4367C45.1964 48.9969 44.7666 47.6519 44.0248 46.5111C49.7701 46.6902 56.1055 46.1782 62.9666 43.9986C67.234 42.6428 76.1132 39.8215 82.3501 31.7431C88.8838 23.2805 89.1846 13.4601 88.7821 8.35988ZM19.7356 113.283C19.7444 113.283 19.7529 113.285 19.7617 113.285C19.772 113.285 19.782 113.284 19.7923 113.283H65.0879C67.4433 113.283 69.4587 114.704 70.2487 116.698H4.74484C5.53475 114.704 7.55024 113.283 9.90555 113.283H19.7356ZM24.5364 25.7453C22.6461 25.7453 21.1078 24.2722 21.1078 22.462V22.3307H31.6906H43.1396H53.8849V22.462C53.8849 24.2725 52.3469 25.7453 50.4563 25.7453H24.5364ZM37.0281 35.9988C37.1537 36.0218 37.2828 36.0349 37.4153 36.0349C37.5821 36.0349 37.7434 36.0138 37.8989 35.978C39.7531 36.1512 41.2075 37.6519 41.2075 39.4726C41.2075 40.6324 40.6143 41.6597 39.7066 42.2996C38.0058 42.143 36.3494 41.9423 34.7332 41.7281C34.1973 41.1175 33.8728 40.3309 33.8728 39.4726C33.8726 37.7027 35.248 36.2386 37.0281 35.9988ZM37.4153 46.9241C39.4377 46.9241 41.0828 48.4994 41.0828 50.436C41.0828 52.3724 39.4377 53.9478 37.4153 53.9478C35.3933 53.948 33.7482 52.3724 33.7482 50.436C33.7482 48.4997 35.3933 46.9241 37.4153 46.9241ZM21.2276 68.3725C19.2554 68.7167 15.5604 68.9311 12.1731 66.7576C6.4782 63.1033 7.03708 56.0246 7.04343 55.9534C7.42629 51.6431 10.3593 48.6153 11.6022 47.514C16.4987 43.1752 22.7378 44.0449 31.373 45.2478C31.508 45.2668 31.6449 45.2857 31.7808 45.3044C30.4518 46.6419 29.6338 48.4486 29.6338 50.436C29.6338 52.3853 30.4203 54.161 31.7038 55.4901C28.9092 57.1053 26.9037 59.8505 26.3839 63.0605C23.8159 63.8113 21.8268 65.8417 21.2276 68.3725ZM46.4107 66.6871C48.3013 66.6871 49.8393 68.16 49.8393 69.9704C49.8393 71.7808 48.3013 73.2536 46.4107 73.2536H28.5821C26.6915 73.2536 25.1535 71.7808 25.1535 69.9704C25.1535 68.16 26.6915 66.6871 28.5821 66.6871H46.4107ZM44.3243 62.7472H30.6689C31.5539 59.9388 34.2794 57.8879 37.4965 57.8879C40.7136 57.8879 43.4388 59.9392 44.3243 62.7472Z" fill="white"/>
</svg>
