<svg width="83" height="121" viewBox="0 0 83 121" fill="none" xmlns="http://www.w3.org/2000/svg">
<path d="M82.4875 8.07033C82.4086 6.98544 81.4979 6.17212 80.4527 6.2543C79.408 6.33624 78.6247 7.28206 78.7036 8.36695C79.1084 13.9309 78.535 22.0463 73.5043 29.111C68.4667 36.1857 61.3216 38.647 57.4829 39.9695C51.7983 41.9274 46.5801 42.4375 41.74 42.3057C42.1641 41.3554 42.4027 40.2979 42.4027 39.1833C42.4027 35.713 40.1059 32.7892 37.0079 31.9641V29.3957H47.1386C50.9748 29.3957 54.0956 26.1553 54.0956 22.1725V20.0713C54.0956 18.9831 53.2462 18.1015 52.1983 18.1015H42.9648L46.7614 5.3869C47.1079 4.22616 46.9086 2.99916 46.2141 2.02102C45.5196 1.04289 44.4501 0.481951 43.2796 0.481951H33.2131C32.1653 0.481951 31.3159 1.36363 31.3159 2.4518C31.3159 3.53996 32.1653 4.42164 33.2131 4.42164H43.0769L38.9922 18.1017H31.1695L25.5797 1.79089C25.2286 0.765933 24.1428 0.231682 23.1561 0.595263C22.1687 0.960014 21.6534 2.08681 22.0045 3.11177L27.1418 18.1012H18.1728C17.125 18.1012 16.2755 18.9829 16.2755 20.0711V22.1723C16.2755 26.155 19.3963 29.3954 23.2325 29.3954H33.2136V32.0316C30.2331 32.9371 28.0488 35.7996 28.0488 39.1833C28.0488 39.7318 28.1076 40.2661 28.2167 40.7812C20.682 39.6773 14.13 39.1416 8.72574 44.3334C7.25488 45.7467 3.78326 49.6476 3.31717 55.3307C3.28561 55.7156 2.62695 64.8091 9.71699 69.7417C12.541 71.7064 15.4694 72.2512 17.8483 72.2512C18.7981 72.2512 19.6595 72.1643 20.3921 72.0463C20.9425 73.6905 22.0496 75.0655 23.4783 75.9284C16.4604 79.9739 11.6995 87.7482 11.6995 96.6565C11.6995 101.066 12.8824 105.349 15.0755 109.054H9.73796C4.83967 109.054 0.854614 113.192 0.854614 118.278V118.379C0.854614 119.467 1.70403 120.349 2.75187 120.349H67.6195C68.6674 120.349 69.5168 119.467 69.5168 118.379V118.278C69.5168 113.192 65.5319 109.054 60.6334 109.054H19.7082C16.9852 105.551 15.494 101.182 15.494 96.6565C15.494 85.7652 24.0283 76.9044 34.5182 76.9044C45.0082 76.9044 53.5427 85.7652 53.5427 96.6565C53.5427 98.7305 53.2351 100.772 52.6281 102.725C52.3066 103.761 52.8543 104.871 53.8516 105.205C54.8492 105.539 55.918 104.97 56.2398 103.934C56.9679 101.59 57.3372 99.1412 57.3372 96.6563C57.3372 88.0151 52.8577 80.441 46.1839 76.3021C48.6415 75.1865 50.3642 72.6393 50.3642 69.681C50.3642 66.4304 48.2848 63.6751 45.4346 62.7718C44.9493 59.5221 43.0586 56.7499 40.4306 55.1432C41.5839 53.8204 42.2874 52.0676 42.2874 50.1472C42.2874 48.7074 41.891 47.3624 41.2069 46.2215C46.5059 46.4006 52.3492 45.8886 58.6773 43.709C62.6132 42.3532 70.8027 39.5319 76.5552 31.4535C82.5813 22.991 82.8587 13.1705 82.4875 8.07033ZM18.8044 112.994C18.8125 112.994 18.8204 112.995 18.8285 112.995C18.838 112.995 18.8472 112.994 18.8567 112.994H60.6339C62.8062 112.994 64.6652 114.414 65.3937 116.408H4.97812C5.70668 114.414 7.5656 112.994 9.73796 112.994H18.8044ZM23.2323 25.4557C21.4888 25.4557 20.0701 23.9827 20.0701 22.1725V22.0412H29.8308H40.3904H50.3011V22.1725C50.3011 23.9829 48.8825 25.4557 47.1388 25.4557H23.2323ZM34.7537 35.7093C34.8696 35.7322 34.9886 35.7453 35.1108 35.7453C35.2646 35.7453 35.4134 35.7243 35.5568 35.6884C37.267 35.8617 38.6084 37.3624 38.6084 39.1831C38.6084 40.3429 38.0613 41.3702 37.2241 42.01C35.6554 41.8534 34.1277 41.6528 32.637 41.4385C32.1427 40.828 31.8435 40.0413 31.8435 39.1831C31.8433 37.4132 33.1119 35.949 34.7537 35.7093ZM35.1108 46.6345C36.9761 46.6345 38.4934 48.2099 38.4934 50.1465C38.4934 52.0828 36.9761 53.6582 35.1108 53.6582C33.2458 53.6584 31.7285 52.0828 31.7285 50.1465C31.7285 48.2101 33.2458 46.6345 35.1108 46.6345ZM20.1806 68.083C18.3615 68.4271 14.9535 68.6416 11.8294 66.468C6.57684 62.8137 7.0923 55.735 7.09816 55.6639C7.45128 51.3536 10.1565 48.3258 11.3028 47.2245C15.8189 42.8856 21.5734 43.7554 29.5379 44.9582C29.6623 44.9772 29.7886 44.9962 29.914 45.0149C28.6882 46.3524 27.9338 48.1591 27.9338 50.1465C27.9338 52.0957 28.6591 53.8715 29.843 55.2006C27.2654 56.8157 25.4157 59.5609 24.9363 62.7709C22.5678 63.5217 20.7332 65.5522 20.1806 68.083ZM43.4075 66.3976C45.1512 66.3976 46.5697 67.8704 46.5697 69.6808C46.5697 71.4912 45.1512 72.964 43.4075 72.964H26.9637C25.22 72.964 23.8015 71.4912 23.8015 69.6808C23.8015 67.8704 25.22 66.3976 26.9637 66.3976H43.4075ZM41.4831 62.4576H28.8885C29.7047 59.6492 32.2185 57.5984 35.1857 57.5984C38.1529 57.5984 40.6664 59.6497 41.4831 62.4576Z" fill="white"/>
</svg>
