<svg width="91" height="70" viewBox="0 0 91 70" fill="none" xmlns="http://www.w3.org/2000/svg">
<path d="M83.3273 18.5801H81.8252V8.00362C81.8204 3.83346 78.4606 0.453885 74.3148 0.448975H17.2358C13.09 0.453885 9.73026 3.83346 9.72537 8.00362V18.5801H8.22329C4.07755 18.585 0.717772 21.9646 0.712891 26.1348V50.3096C0.717772 54.4798 4.07755 57.8594 8.22329 57.8643H9.72537V68.4408C9.72537 69.2752 10.3979 69.9517 11.2275 69.9517H14.2316C14.8582 69.9521 15.4192 69.5613 15.6391 68.9711L19.7788 57.8643H71.7718L75.9115 68.9711C76.1314 69.5613 76.6924 69.9521 77.319 69.9517H80.3232C81.1527 69.9517 81.8252 69.2752 81.8252 68.4408V57.8643H83.3273C87.4731 57.8594 90.8328 54.4798 90.8377 50.3096V26.1348C90.8328 21.9646 87.4731 18.585 83.3273 18.5801ZM12.7295 8.00362C12.7295 5.5002 14.747 3.47083 17.2358 3.47083H74.3148C76.8036 3.47083 78.8211 5.5002 78.8211 8.00362V18.5801H74.3148C73.4853 18.5801 72.8128 19.2566 72.8128 20.0911V36.7113H18.7379V20.0911C18.7379 19.2566 18.0653 18.5801 17.2358 18.5801H12.7295V8.00362ZM3.71705 26.1348C3.71705 23.6313 5.73453 21.602 8.22329 21.602H15.7337V36.7113H3.71705V26.1348ZM13.1907 66.9298H12.7295V57.8643H16.5704L13.1907 66.9298ZM78.8211 66.9298H78.3599L74.9803 57.8643H78.8211V66.9298ZM87.8336 50.3096C87.8336 52.8131 85.8161 54.8424 83.3273 54.8424H8.22329C5.73453 54.8424 3.71705 52.8131 3.71705 50.3096V39.7331H87.8336V50.3096ZM87.8336 36.7113H75.8169V21.602H83.3273C85.8161 21.602 87.8336 23.6313 87.8336 26.1348V36.7113Z" fill="white"/>
<path d="M8.2233 51.8204H71.3107C72.1402 51.8204 72.8127 51.1439 72.8127 50.3095C72.8127 49.4751 72.1402 48.7986 71.3107 48.7986H8.2233C7.39378 48.7986 6.72122 49.4751 6.72122 50.3095C6.72122 51.1439 7.39378 51.8204 8.2233 51.8204Z" fill="white"/>
<path d="M77.319 51.8204H83.3273C84.1568 51.8204 84.8294 51.1439 84.8294 50.3095C84.8294 49.4751 84.1568 48.7986 83.3273 48.7986H77.319C76.4895 48.7986 75.8169 49.4751 75.8169 50.3095C75.8169 51.1439 76.4895 51.8204 77.319 51.8204Z" fill="white"/>
</svg>
