<svg width="152" height="126" viewBox="0 0 152 126" fill="none" xmlns="http://www.w3.org/2000/svg">
<g clip-path="url(#clip0)">
<path d="M99.0271 8.04836C98.9482 6.96347 98.0375 6.15015 96.9923 6.23232C95.9476 6.31427 95.1643 7.26009 95.2432 8.34498C95.648 13.909 95.0745 22.0243 90.0439 29.089C85.0062 36.1637 77.8612 38.625 74.0225 39.9475C68.3379 41.9054 63.1197 42.4155 58.2795 42.2837C58.7037 41.3335 58.9423 40.276 58.9423 39.1613C58.9423 35.6911 56.6454 32.7672 53.5474 31.9422V29.3737H63.6782C67.5144 29.3737 70.6352 26.1333 70.6352 22.1505V20.0493C70.6352 18.9612 69.7858 18.0795 68.7379 18.0795H59.5044L63.3009 5.36493C63.6475 4.20418 63.4482 2.97719 62.7537 1.99905C62.0592 1.02092 60.9897 0.459978 59.8192 0.459978H49.7527C48.7049 0.459978 47.8554 1.34166 47.8554 2.42982C47.8554 3.51799 48.7049 4.39967 49.7527 4.39967H59.6165L55.5317 18.0797H47.7091L42.1192 1.76892C41.7682 0.74396 40.6824 0.209709 39.6957 0.57329C38.7083 0.938042 38.193 2.06484 38.5441 3.0898L43.6814 18.0793H34.7124C33.6645 18.0793 32.8151 18.9609 32.8151 20.0491V22.1503C32.8151 26.1331 35.9359 29.3734 39.7721 29.3734H49.7532V32.0096C46.7726 32.9151 44.5883 35.7777 44.5883 39.1613C44.5883 39.7099 44.6472 40.2441 44.7563 40.7592C37.2216 39.6553 30.6696 39.1197 25.2653 44.3114C23.7945 45.7248 20.3228 49.6256 19.8568 55.3087C19.8252 55.6936 19.1665 64.7871 26.2566 69.7197C29.0806 71.6844 32.009 72.2292 34.3879 72.2292C35.3377 72.2292 36.199 72.1423 36.9316 72.0243C37.4821 73.6685 38.5892 75.0435 40.0179 75.9064C33 79.952 28.2391 87.7262 28.2391 96.6345C28.2391 101.044 29.422 105.327 31.6151 109.032H26.2775C21.3793 109.032 17.3942 113.17 17.3942 118.256V118.357C17.3942 119.445 18.2436 120.327 19.2915 120.327H84.1591C85.2069 120.327 86.0564 119.445 86.0564 118.357V118.256C86.0564 113.17 82.0715 109.032 77.173 109.032H36.2477C33.5247 105.529 32.0336 101.16 32.0336 96.6345C32.0336 85.7433 40.5679 76.8825 51.0578 76.8825C61.5478 76.8825 70.0823 85.7433 70.0823 96.6345C70.0823 98.7086 69.7747 100.751 69.1677 102.704C68.8462 103.739 69.3939 104.849 70.3912 105.183C71.3888 105.517 72.4576 104.948 72.7794 103.912C73.5075 101.568 73.8768 99.1192 73.8768 96.6343C73.8768 87.9931 69.3973 80.419 62.7235 76.2801C65.1811 75.1645 66.9038 72.6174 66.9038 69.6591C66.9038 66.4084 64.8243 63.6531 61.9742 62.7499C61.4889 59.5001 59.5982 56.7279 56.9701 55.1212C58.1235 53.7985 58.827 52.0456 58.827 50.1252C58.827 48.6854 58.4306 47.3404 57.7465 46.1996C63.0455 46.3787 68.8888 45.8666 75.2169 43.687C79.1528 42.3313 87.3423 39.5099 93.0947 31.4316C99.1209 22.969 99.3983 13.1486 99.0271 8.04836ZM35.344 112.972C35.3521 112.972 35.36 112.973 35.3681 112.973C35.3776 112.973 35.3868 112.972 35.3963 112.972H77.1735C79.3458 112.972 81.2047 114.392 81.9333 116.386H21.5177C22.2463 114.392 24.1052 112.972 26.2775 112.972H35.344ZM39.7719 25.4338C38.0284 25.4338 36.6097 23.9607 36.6097 22.1505V22.0192H46.3704H56.93H66.8407V22.1505C66.8407 23.9609 65.4221 25.4338 63.6784 25.4338H39.7719ZM51.2932 35.6873C51.4091 35.7103 51.5282 35.7234 51.6504 35.7234C51.8042 35.7234 51.953 35.7023 52.0964 35.6665C53.8065 35.8397 55.148 37.3404 55.148 39.1611C55.148 40.3209 54.6009 41.3482 53.7637 41.988C52.195 41.8314 50.6673 41.6308 49.1766 41.4166C48.6823 40.806 48.3831 40.0194 48.3831 39.1611C48.3829 37.3912 49.6515 35.927 51.2932 35.6873ZM51.6504 46.6125C53.5157 46.6125 55.033 48.1879 55.033 50.1245C55.033 52.0609 53.5157 53.6362 51.6504 53.6362C49.7854 53.6365 48.2681 52.0609 48.2681 50.1245C48.2681 48.1881 49.7854 46.6125 51.6504 46.6125ZM36.7201 68.061C34.9011 68.4052 31.4931 68.6196 28.3689 66.4461C23.1164 62.7918 23.6319 55.7131 23.6377 55.6419C23.9909 51.3316 26.696 48.3038 27.8424 47.2025C32.3585 42.8636 38.113 43.7334 46.0775 44.9363C46.2019 44.9552 46.3282 44.9742 46.4536 44.9929C45.2278 46.3304 44.4733 48.1371 44.4733 50.1245C44.4733 52.0737 45.1987 53.8495 46.3825 55.1786C43.805 56.7937 41.9553 59.539 41.4759 62.7489C39.1074 63.4997 37.2728 65.5302 36.7201 68.061ZM59.947 66.3756C61.6907 66.3756 63.1093 67.8484 63.1093 69.6588C63.1093 71.4693 61.6907 72.9421 59.947 72.9421H43.5033C41.7596 72.9421 40.341 71.4693 40.341 69.6588C40.341 67.8484 41.7596 66.3756 43.5033 66.3756H59.947ZM58.0227 62.4357H45.4281C46.2443 59.6272 48.7581 57.5764 51.7253 57.5764C54.6925 57.5764 57.206 59.6277 58.0227 62.4357Z" fill="white"/>
</g>
<g clip-path="url(#clip1)">
<path d="M97.304 97.9892C96.6976 99.0536 96.5955 100.37 97.0297 101.53C97.0471 101.584 97.0691 101.636 97.0947 101.686C97.4987 102.473 98.2232 103 99.0439 103.104C99.1932 103.127 99.3439 103.139 99.495 103.138C99.6008 103.138 99.7103 103.108 99.8179 103.097C99.7895 103.383 99.7923 103.671 99.8261 103.957C99.9219 104.852 100.406 105.643 101.127 106.083C101.172 106.112 101.219 106.136 101.269 106.154C101.667 106.361 102.103 106.465 102.543 106.46C103.239 106.442 103.919 106.235 104.523 105.859C104.836 107.032 105.863 107.802 106.979 107.699C107.001 107.703 107.024 107.703 107.047 107.699C108.349 107.63 109.568 106.973 110.409 105.887C110.44 105.917 110.46 105.958 110.492 105.987C110.999 106.442 111.637 106.686 112.293 106.674C112.747 106.669 113.196 106.577 113.621 106.403C114.931 105.856 115.987 104.76 116.552 103.359C116.865 103.472 117.193 103.529 117.523 103.528C118.431 103.5 119.309 103.163 120.032 102.563C120.065 102.541 120.097 102.518 120.132 102.493C121.25 101.614 121.975 100.26 122.126 98.7664C122.126 98.7574 122.126 98.7499 122.126 98.7409H122.148C123.519 98.579 124.763 97.7894 125.569 96.5686C125.592 96.5337 125.614 96.4972 125.633 96.4597C126.421 95.3958 126.693 93.9843 126.364 92.6647C126.962 92.3819 127.506 91.9774 127.965 91.4729C128.492 90.9075 128.898 90.2217 129.154 89.4655C129.607 88.3361 129.461 87.028 128.773 86.05C128.744 86.013 128.705 85.9901 128.673 85.9541C128.748 85.8797 128.829 85.8167 128.901 85.7358C129.797 84.8228 130.317 83.5536 130.342 82.217C130.353 81.19 129.862 80.2345 129.054 79.707C128.923 79.6376 128.787 79.5797 128.647 79.5337C129.255 78.4683 129.359 77.1492 128.925 75.9864C128.907 75.9329 128.885 75.881 128.859 75.8315C128.456 75.0454 127.731 74.5179 126.91 74.413C126.654 74.3781 126.395 74.3751 126.138 74.4045C126.165 74.1233 126.161 73.8401 126.129 73.5599C126.033 72.6648 125.549 71.8741 124.828 71.4341C124.784 71.4121 124.739 71.3931 124.692 71.3787C123.635 70.9036 122.432 71.009 121.458 71.6624C121.333 71.2892 121.136 70.9496 120.881 70.6659C120.371 70.1224 119.684 69.8203 118.97 69.8248C117.645 69.8672 116.398 70.523 115.543 71.6284C114.649 70.8007 113.4 70.6035 112.328 71.1199C111.017 71.6664 109.961 72.7627 109.396 74.1643C108.186 73.8066 106.892 74.1023 105.916 74.96C105.881 74.9809 105.848 75.0044 105.816 75.0309C104.697 75.9095 103.972 77.2651 103.823 78.76V78.7855C103.823 78.794 103.808 78.7855 103.8 78.7855C102.429 78.9473 101.186 79.737 100.38 80.9578C100.357 80.9922 100.336 81.0287 100.318 81.0666C99.5298 82.1305 99.2578 83.5421 99.5862 84.8617C98.988 85.1444 98.4444 85.549 97.985 86.0535C97.4579 86.6189 97.0517 87.3047 96.7947 88.0609C96.3418 89.1902 96.4879 90.4984 97.1758 91.4764C97.2046 91.5133 97.2417 91.5398 97.2761 91.5743C97.2019 91.6477 97.1217 91.7111 97.0507 91.7926C96.1549 92.7056 95.6356 93.9748 95.6113 95.3114C95.5994 96.3389 96.0899 97.2949 96.8987 97.8213C97.0292 97.8893 97.1648 97.9452 97.304 97.9892ZM126.632 81.7824C127.048 81.4702 127.578 81.4018 128.049 81.6006C128.118 81.645 128.331 81.7804 128.341 82.2704C128.295 83.0086 127.989 83.6984 127.487 84.1964C127.091 84.6514 126.579 84.9661 126.017 85.0995L118.771 86.518L126.592 81.8079L126.632 81.7824ZM110.798 88.4385C111.014 88.008 111.287 87.6139 111.607 87.2687C111.925 86.9216 112.286 86.6244 112.68 86.3861C113.023 86.1704 113.398 86.0175 113.788 85.9346C114.081 85.8712 114.384 85.8772 114.675 85.9531H114.692C114.901 86.004 115.093 86.1174 115.246 86.2803C115.396 86.4466 115.5 86.6559 115.546 86.8836V86.9021C115.615 87.2193 115.621 87.5489 115.563 87.8691C115.487 88.2942 115.347 88.7022 115.149 89.0779V89.0859C114.933 89.5159 114.66 89.91 114.34 90.2551C114.022 90.6028 113.661 90.9 113.267 91.1382C112.923 91.354 112.548 91.5064 112.158 91.5888C111.865 91.6532 111.562 91.6477 111.271 91.5713H111.254C110.826 91.4749 110.491 91.1103 110.402 90.6437V90.6263C110.333 90.3091 110.327 89.9794 110.385 89.6598C110.461 89.2342 110.6 88.8256 110.799 88.4505L110.798 88.4385ZM107.183 91.0049L99.3608 95.711L99.321 95.736C98.9061 96.0502 98.3748 96.1191 97.904 95.9193C97.8344 95.8748 97.6209 95.7395 97.6122 95.2495C97.6576 94.5107 97.9635 93.8205 98.4655 93.3225C98.8612 92.8674 99.3732 92.5528 99.9352 92.4189L107.183 91.0049ZM99.321 100.949C99.1483 100.936 98.9889 100.845 98.8818 100.697C98.8717 100.67 98.8593 100.643 98.8456 100.618C98.4934 99.9217 99.1117 98.3832 100.31 97.6445L100.343 97.6235L107.263 93.4558L101.232 100.033C100.752 100.634 100.051 100.97 99.321 100.949ZM102.112 104.179C102.088 104.164 102.064 104.152 102.04 104.14C101.903 104.025 101.819 103.851 101.808 103.662C101.789 102.864 102.098 102.098 102.65 101.574L108.676 95.0017L104.853 102.541C104.844 102.558 104.836 102.575 104.829 102.593L104.821 102.607C104.139 103.895 102.744 104.555 102.112 104.174V104.179ZM107.021 105.522C106.576 105.511 106.451 105.28 106.412 105.204C106.226 104.683 106.293 104.095 106.588 103.638L106.615 103.581L110.918 95.0847L109.617 102.99C109.346 104.358 108.297 105.379 107.021 105.517V105.522ZM112.936 104.361C112.571 104.563 112.135 104.549 111.781 104.324C111.575 104.063 111.503 103.706 111.589 103.375L113.143 93.9323L114.868 101.371L114.879 101.417C114.864 102.745 114.087 103.92 112.936 104.355V104.361ZM120.13 98.62C120.019 99.4516 119.609 100.2 118.992 100.703C118.965 100.72 118.938 100.74 118.913 100.761C118.447 101.225 117.809 101.423 117.188 101.297C116.998 101.233 116.855 101.061 116.816 100.849L116.801 100.8L114.9 92.6032L115.006 92.5203L119.948 97.9117C120.095 98.1085 120.161 98.3628 120.13 98.6145V98.62ZM123.974 95.2375C123.956 95.265 123.938 95.2944 123.922 95.3224C123.461 95.9972 122.773 96.4438 122.01 96.5641C121.778 96.6001 121.542 96.5277 121.362 96.3648L116.419 90.9744L116.495 90.865L124.034 92.9514L124.094 92.9658C124.272 93.0193 124.413 93.1691 124.466 93.3619C124.579 94.0362 124.397 94.729 123.973 95.2355L123.974 95.2375ZM127.275 88.7277C127.116 89.1808 126.868 89.5903 126.549 89.928C126.048 90.5558 125.304 90.8895 124.543 90.8271C124.523 90.8271 124.504 90.8171 124.484 90.8141L117.711 88.946L122.126 88.0819L126.371 87.2502C126.675 87.1568 127.001 87.2353 127.24 87.4585C127.449 87.8481 127.462 88.3256 127.275 88.7277ZM126.474 76.5713C126.529 76.5713 126.584 76.5753 126.638 76.5833C126.81 76.5948 126.969 76.6862 127.075 76.8345C127.086 76.8615 127.097 76.888 127.11 76.9139C127.464 77.6092 126.845 79.1486 125.646 79.8864L125.613 79.9078L118.693 84.076L124.724 77.4978C125.176 76.9539 125.803 76.6212 126.474 76.5693V76.5713ZM123.847 73.3526C123.87 73.3661 123.893 73.3796 123.919 73.3916C124.055 73.5075 124.14 73.6813 124.15 73.8696C124.17 74.6678 123.861 75.4335 123.309 75.9569L117.282 82.5301L121.101 74.9794L121.127 74.928L121.134 74.913C121.815 73.6308 123.21 72.9705 123.843 73.3501L123.847 73.3526ZM118.916 72.008H118.945C119.137 71.999 119.324 72.0689 119.47 72.2048C119.75 72.51 119.708 73.2053 119.37 73.8946L119.345 73.9495L115.043 82.4462L115.716 78.3544L116.344 74.5409C116.633 73.1953 117.656 72.1858 118.912 72.006L118.916 72.008ZM113.023 73.1713C113.4 72.95 113.857 72.9775 114.208 73.2432C114.387 73.505 114.446 73.8416 114.369 74.1568L112.811 83.5995L111.083 76.1547L111.072 76.1088C111.087 74.7786 111.867 73.6024 113.019 73.1693L113.023 73.1713ZM105.825 78.9074C105.937 78.0762 106.347 77.328 106.965 76.8265C106.993 76.809 107.017 76.7886 107.044 76.7676C107.51 76.3036 108.148 76.1053 108.767 76.2331C108.957 76.2956 109.101 76.4669 109.141 76.6792L109.155 76.7286L111.056 84.9262C111.021 84.9536 110.985 84.9806 110.956 85.0091L106.012 79.6176C105.861 79.4203 105.793 79.1626 105.825 78.9074ZM101.98 82.2899C101.999 82.2629 102.016 82.2334 102.033 82.204C102.493 81.5302 103.181 81.0836 103.943 80.9632C104.176 80.9273 104.411 80.9992 104.592 81.1615L109.536 86.553L109.46 86.6624L101.92 84.5815L101.861 84.566C101.682 84.5141 101.542 84.3642 101.489 84.1709C101.373 83.4946 101.555 82.7979 101.98 82.2899ZM98.6784 88.7987C98.8369 88.3461 99.0838 87.9365 99.4021 87.5984C99.8536 87.0614 100.474 86.7293 101.14 86.6679C101.23 86.6674 101.32 86.6778 101.408 86.6993C101.427 86.6993 101.447 86.7078 101.466 86.7123L108.239 88.5869L103.825 89.451L99.5788 90.2816C99.2756 90.376 98.9486 90.2976 98.7096 90.0733C98.5017 89.6807 98.4911 89.1997 98.6826 88.7977L98.6784 88.7987Z" fill="white"/>
<path d="M119.07 120.128C122.37 120.141 125.637 119.411 128.666 117.985C131.565 118.589 134.511 118.873 137.462 118.833C143.379 118.833 145.797 119.738 146.71 120.277C147.203 120.57 147.804 120.542 148.273 120.206C148.743 119.869 149.004 119.279 148.953 118.669C148.764 116.323 147.971 110.913 144.745 107.679C144.994 107.483 145.245 107.286 145.478 107.082C149.695 103.397 150.781 100.349 151.057 98.8602C151.204 98.057 150.791 97.2569 150.086 96.9766C147.442 95.9452 144.696 95.2539 141.905 94.9168C141.682 86.0195 137.703 76.7251 130.857 69.2618C123.883 61.6531 110.183 64.2085 100.324 74.9619C95.7899 79.727 92.6806 85.8741 91.4042 92.5992C90.3564 98.9606 91.668 104.522 95.097 108.259C102.27 116.086 110.983 120.128 119.07 120.128ZM146.87 117.961C145.31 117.297 142.498 116.652 137.465 116.652C135.524 116.659 133.585 116.539 131.657 116.294C132.977 115.392 134.207 114.342 135.328 113.162C136.917 111.498 138.259 109.575 139.306 107.462C140.422 107.619 141.506 107.977 142.514 108.522C145.584 110.715 146.559 115.352 146.87 117.961ZM144.23 105.375C143.843 105.71 143.429 106.03 143.004 106.338C142.104 105.922 141.165 105.616 140.203 105.425C141.197 102.779 141.762 99.9641 141.873 97.1065C144.299 97.4132 146.687 98.0041 148.997 98.8687C148.663 100.06 147.607 102.426 144.23 105.375ZM139.927 95.9322C139.984 101.827 137.818 107.488 133.937 111.592C126.033 119.907 113.676 119.911 102.978 112.419C103.869 112.567 104.768 112.641 105.668 112.643C112.149 112.643 119.608 109.133 125.633 102.562C130.166 97.7968 133.275 91.6497 134.553 84.9251C134.955 82.5935 135.003 80.206 134.695 77.8579C138.019 83.1959 139.837 89.4779 139.926 95.9292L139.927 95.9322ZM93.3731 92.9833C94.5776 86.6978 97.4936 80.9557 101.739 76.5068C107.388 70.3442 114.332 67.0281 120.271 67.0281C123.671 66.8897 126.979 68.2513 129.447 70.8047C132.399 74.0244 133.515 78.9018 132.586 84.539C131.381 90.824 128.466 96.5661 124.221 101.015C115.143 110.916 102.717 113.473 96.5167 106.715C93.5582 103.499 92.4457 98.6219 93.3731 92.9833Z" fill="white"/>
<path d="M126.449 111.99C121.936 115.928 113.468 112.929 113.383 112.898C112.858 112.707 112.291 113.018 112.117 113.59C111.942 114.162 112.227 114.781 112.751 114.971C115.09 115.762 117.522 116.179 119.971 116.207C122.734 116.346 125.46 115.461 127.704 113.697C128.135 113.321 128.205 112.634 127.86 112.163C127.515 111.692 126.884 111.616 126.453 111.993L126.449 111.99Z" fill="white"/>
<path d="M131.076 110.659C131.076 111.262 130.629 111.751 130.076 111.751C129.523 111.751 129.075 111.262 129.075 110.659C129.075 110.057 129.523 109.569 130.076 109.569C130.629 109.569 131.076 110.057 131.076 110.659Z" fill="white"/>
</g>
<defs>
<clipPath id="clip0">
<rect width="115.45" height="119.867" fill="white" transform="translate(0.539612 0.458984)"/>
</clipPath>
<clipPath id="clip1">
<rect width="60.0341" height="65.4736" fill="white" transform="translate(91.0525 59.8889)"/>
</clipPath>
</defs>
</svg>
