<svg width="85" height="92" viewBox="0 0 85 92" fill="none" xmlns="http://www.w3.org/2000/svg">
<path d="M0.431763 78.2524C0.431763 85.5727 6.35245 91.5283 13.6299 91.5283H61.1432C68.4207 91.5283 74.3413 85.5727 74.3413 78.2524V75.5972H62.1598C63.5513 73.7251 64.4676 71.4615 64.7185 68.9718L64.9547 66.8769C65.2473 66.7725 65.5544 66.6641 65.8776 66.5501C72.5255 64.2069 84.8999 59.8449 84.8999 46.1148C84.8999 34.9812 76.9453 33.1887 68.7765 32.9657L69.3781 27.6272H5.39479L10.0544 68.972C10.3054 71.4617 11.2217 73.7255 12.6131 75.5974H0.431763V78.2524ZM76.9855 39.8697C78.2885 40.6323 79.6206 41.9705 79.6206 46.1148C79.6206 54.7546 73.1616 58.2309 65.6165 61.0047L68.1792 38.266C72.5251 38.364 75.2768 38.8697 76.9855 39.8697ZM32.1073 47.313V59.6662H26.828V47.313L29.4677 44.6579L32.1073 47.313ZM15.3055 68.4243L11.3063 32.9374H26.828V39.8031L21.5488 45.1135V64.9765H37.3866V45.1135L32.1073 39.8031V32.9374H63.4668L59.4674 68.4243C59.0609 72.5137 55.6734 75.5972 51.5879 75.5972H23.1852C19.0996 75.5972 15.712 72.5135 15.3055 68.4243ZM68.6097 80.9076C67.5202 83.9984 64.5844 86.2179 61.143 86.2179H13.6297C10.1884 86.2179 7.25256 83.9984 6.1631 80.9076H68.6097Z" fill="white"/>
<path d="M25.7376 5.17218L22.6392 0.872559C20.3135 2.56833 19.0577 4.3974 18.8003 6.46383C18.4126 9.57429 20.4034 11.9801 22.1596 14.1026C23.1761 15.3309 24.441 16.8596 24.3384 17.6836C24.309 17.9195 24.0846 18.5819 22.6392 19.6358L25.7376 23.9354C28.0632 22.2397 29.319 20.4106 29.5764 18.3442C29.9641 15.2337 27.9733 12.8279 26.2171 10.7054C25.2006 9.47711 23.9357 7.94843 24.0383 7.12444C24.0677 6.88848 24.2923 6.22611 25.7376 5.17218Z" fill="white"/>
<path d="M41.5753 5.17218L38.4769 0.872559C36.1512 2.56833 34.8954 4.3974 34.638 6.46383C34.2503 9.57429 36.2411 11.9801 37.9973 14.1026C39.0138 15.3309 40.2787 16.8596 40.1761 17.6836C40.1467 17.9195 39.9223 18.5819 38.4769 19.6358L41.5753 23.9354C43.9009 22.2397 45.1567 20.4106 45.4142 18.3442C45.8018 15.2337 43.811 12.8279 42.0548 10.7054C41.0384 9.47711 39.7734 7.94843 39.876 7.12444C39.9054 6.88848 40.13 6.22611 41.5753 5.17218Z" fill="white"/>
<path d="M57.4131 5.17218L54.3147 0.872559C51.989 2.56833 50.7332 4.3974 50.4758 6.46383C50.0881 9.57429 52.0789 11.9801 53.8352 14.1026C54.8516 15.3309 56.1165 16.8596 56.0139 17.6836C55.9845 17.9195 55.7601 18.5819 54.3147 19.6358L57.4131 23.9354C59.7388 22.2397 60.9945 20.4106 61.252 18.3442C61.6396 15.2337 59.6488 12.8279 57.8926 10.7054C56.8762 9.47711 55.6113 7.94843 55.7139 7.12444C55.7432 6.88848 55.9678 6.22611 57.4131 5.17218Z" fill="white"/>
</svg>
