<svg width="85" height="88" viewBox="0 0 85 88" fill="none" xmlns="http://www.w3.org/2000/svg">
<path d="M80.9609 39.387C79.5717 36.6535 77.6907 34.294 75.4926 32.5195L77.5676 28.4827C78.8469 25.9939 78.8213 23.0382 77.4989 20.5761C76.1764 18.1141 73.8249 16.6443 71.2088 16.6443H56.0438C56.2508 16.0671 56.4728 15.4953 56.7114 14.9305C57.2016 13.7706 57.1709 12.4591 56.6276 11.3321C56.088 10.2123 55.1225 9.44673 53.9786 9.23125L46.962 7.90966C46.2998 7.78465 45.6696 8.26962 45.5549 8.99221C45.4405 9.71498 45.8848 10.402 46.5476 10.5268L53.5641 11.8484C53.9563 11.9222 54.2872 12.1845 54.4721 12.568C54.6604 12.9588 54.6705 13.4147 54.4997 13.8191C53.0243 17.3115 52.1044 21.0294 51.7655 24.8699C51.5728 27.0534 52.2745 29.2446 53.6905 30.8813C54.6161 31.9513 55.4678 33.0893 56.2437 34.2823H45.106C44.5086 30.3478 41.3684 27.3374 37.594 27.3374C33.8197 27.3374 30.6796 30.3478 30.0822 34.2823H8.74233C9.52973 33.078 10.3975 31.9246 11.3463 30.8325C12.735 29.2339 13.4218 27.0685 13.2307 24.8913C12.5886 17.568 9.86775 10.7883 5.36249 5.28542C4.80432 4.60391 5.09688 3.89088 5.19981 3.68832C5.30339 3.48488 5.70505 2.83329 6.53548 2.98999L41.3453 9.54677C42.0082 9.67213 42.638 9.1868 42.7524 8.46421C42.8669 7.74162 42.4225 7.05445 41.7598 6.92962L6.94996 0.373013C5.37109 0.0760804 3.84807 0.871089 3.07041 2.4002C2.2942 3.92647 2.48074 5.7534 3.5461 7.05445C7.7036 12.1326 10.2142 18.388 10.8068 25.1443C10.9308 26.5573 10.4832 27.9648 9.57876 29.0059C3.78638 35.674 0.71939 44.412 0.942786 53.6106C1.17495 63.1718 4.9795 72.0872 11.4486 78.3814C9.46106 79.5224 8.10201 81.7966 8.10201 84.4114C8.10201 86.1197 9.37647 87.5096 10.9427 87.5096H54.0524C55.6186 87.5096 56.8931 86.1197 56.8931 84.4114C56.8931 81.781 55.5178 79.4958 53.5111 78.3616C54.0532 77.833 54.5778 77.2863 55.0829 76.7207C56.3814 76.8232 57.6599 76.8769 58.8843 76.8769C66.5978 76.8767 72.7329 74.8795 77.119 70.9404C81.6566 66.8655 84.0552 60.968 84.0552 53.8861C84.0552 48.3055 83.0142 43.4272 80.9609 39.387ZM37.5943 29.9935C40.0209 29.9935 42.0619 31.8226 42.6221 34.2825H32.5666C33.1269 31.8226 35.168 29.9935 37.5943 29.9935ZM42.6362 36.9384C42.0978 39.4316 40.0424 41.2936 37.5943 41.2936C35.1464 41.2936 33.091 39.4316 32.5527 36.9384H42.6362ZM54.0523 84.8539H10.9425C10.719 84.8539 10.5371 84.6554 10.5371 84.4116C10.5371 82.1206 12.2462 80.2565 14.347 80.2565H20.3547C21.0273 80.2565 21.5723 79.6619 21.5723 78.9285C21.5723 78.1951 21.0273 77.6005 20.3547 77.6005H14.3772C7.61544 71.7586 3.60617 62.9915 3.37676 53.5403C3.23341 47.6333 4.56144 41.9332 7.18213 36.9384H30.0716C30.6434 40.9055 33.7987 43.9496 37.5943 43.9496C41.39 43.9496 44.5453 40.9055 45.1172 36.9384H57.7961C59.8549 40.8779 61.1392 45.2811 61.5102 49.8193C61.5667 50.5097 62.0981 51.0294 62.7217 51.0294C62.7579 51.0294 62.7944 51.0276 62.8313 51.0241C63.5011 50.9589 63.9957 50.3139 63.9361 49.5835C63.5169 44.457 62.0228 39.4897 59.624 35.0853C59.5831 34.9817 59.5297 34.8854 59.467 34.7974C58.3244 32.7449 56.984 30.8181 55.4623 29.0588C54.6099 28.0735 54.1508 26.7926 54.1722 25.4962H69.7984L68.0496 28.8986C66.2113 32.4744 67.2099 37.0742 70.323 39.3707C72.8851 41.2605 75.9392 45.3129 75.9392 53.8861C75.9392 58.2972 74.6005 61.7361 71.9601 64.1074C70.1321 65.7491 66.7384 67.6776 60.7545 68.001C62.5126 64.1507 63.6153 59.9439 63.95 55.5958C64.0064 54.8649 63.5086 54.2227 62.8386 54.1613C62.1702 54.0995 61.5797 54.6425 61.5232 55.3734C60.8532 64.0719 56.8603 72.1616 50.5615 77.6007H45.5931C46.3207 77.0607 47.006 76.444 47.6386 75.7543C50.1388 73.0276 51.6001 69.4054 51.7535 65.5552C51.9058 61.7296 50.7585 58.0069 48.523 55.0729C48.1065 54.5258 47.4949 54.1935 46.8455 54.1607C46.1996 54.1276 45.5682 54.3953 45.1114 54.8934L28.5104 72.998C28.0537 73.4961 27.8089 74.1854 27.8386 74.889C27.8685 75.5973 28.1734 76.2641 28.6747 76.7186C29.0218 77.0331 29.3819 77.3259 29.7518 77.6004H25.6571C24.9845 77.6004 24.4395 78.1949 24.4395 78.9283C24.4395 79.6617 24.9845 80.2563 25.6571 80.2563H50.6479C52.7486 80.2563 54.4578 82.1202 54.4578 84.4114C54.4577 84.6554 54.2758 84.8539 54.0523 84.8539ZM37.6443 77.6005C34.9763 77.5944 32.4025 76.6 30.3327 74.7668L31.7982 73.1685C33.4729 74.5866 35.5174 75.3579 37.6718 75.3579C40.2369 75.3579 42.6483 74.2684 44.4623 72.2903C47.9146 68.5251 48.181 62.5841 45.2668 58.4796L46.733 56.8806C48.5263 59.289 49.4444 62.3226 49.3204 65.4399C49.1937 68.6244 47.9847 71.6205 45.9163 73.8762C43.8481 76.132 41.101 77.4504 38.1811 77.5887C38.0031 77.5972 37.8254 77.6011 37.6481 77.6007H37.6443V77.6005ZM43.5265 60.3774C45.5022 63.4267 45.2413 67.6845 42.7402 70.4122C41.3864 71.8887 39.5864 72.7018 37.6718 72.7018C36.1697 72.7018 34.7392 72.1993 33.5383 71.2706L43.5265 60.3774ZM75.571 68.8902C71.6324 72.4273 66.0181 74.2208 58.8843 74.221C58.3138 74.221 57.7299 74.2079 57.1378 74.1843C57.9526 73.0724 58.7014 71.9073 59.3828 70.6983C65.4682 70.6324 70.222 69.1083 73.508 66.1574C76.737 63.2576 78.3743 59.1289 78.3743 53.8859C78.3743 44.1475 74.738 39.421 71.6874 37.1707C69.6143 35.6416 68.9497 32.5786 70.1738 30.1975L72.6125 25.453C72.899 24.8956 72.8933 24.2594 72.5974 23.7084C72.3014 23.1566 71.7954 22.8402 71.2091 22.8402H54.4695C54.6559 21.6433 54.9035 20.4618 55.2139 19.3002H71.2089C72.9511 19.3002 74.5172 20.279 75.3978 21.9186C76.2784 23.5582 76.2954 25.5264 75.4436 27.1839L73.0047 31.9285C72.5925 32.7304 72.8076 33.7233 73.5056 34.2386C75.6558 35.8245 77.4975 38.05 78.8312 40.6744C80.6817 44.3161 81.6199 48.761 81.6199 53.8861C81.6199 60.1481 79.5282 65.3365 75.571 68.8902Z" fill="white"/>
<path d="M37.5726 69.3746L37.6914 69.6811C37.8878 70.1877 38.3389 70.4921 38.8132 70.4921C38.9715 70.4921 39.1323 70.4583 39.2872 70.3867C39.9064 70.1009 40.1963 69.3219 39.9341 68.6464L39.8153 68.3399C39.5534 67.6642 38.8386 67.3482 38.2195 67.6343C37.6003 67.9199 37.3105 68.6991 37.5726 69.3746Z" fill="white"/>
<path d="M40.8397 67.2225L41.1208 67.3521C41.2756 67.4236 41.4364 67.4574 41.5947 67.4574C42.0691 67.4574 42.5201 67.153 42.7165 66.6465C42.9785 65.971 42.6887 65.1919 42.0695 64.9061L41.7885 64.7765C41.1695 64.4906 40.4548 64.8066 40.1928 65.4821C39.9307 66.1576 40.2205 66.9369 40.8397 67.2225Z" fill="white"/>
<path d="M33.0033 60.6763C33.0332 59.9727 32.7882 59.2835 32.3315 58.7853L15.7309 40.6805C15.2742 40.1824 14.6431 39.9146 13.9968 39.9478C13.3474 39.9806 12.7358 40.3129 12.3192 40.8599C10.0837 43.794 8.93648 47.5167 9.08877 51.3423C9.24203 55.1925 10.7034 58.8147 13.2037 61.5414C15.704 64.2684 19.0252 65.8621 22.5557 66.0292C22.7622 66.039 22.9682 66.0439 23.1741 66.0439C26.4627 66.0439 29.6355 64.8006 32.1676 62.5061C32.6686 62.0514 32.9735 61.3845 33.0033 60.6763ZM17.3155 46.1647L27.3037 57.0579C26.1027 57.9866 24.6723 58.4891 23.1702 58.4891C21.2556 58.4891 19.4556 57.676 18.1017 56.1995C15.6007 53.4718 15.3398 49.2142 17.3155 46.1647ZM22.6612 63.3758C19.7413 63.2375 16.9942 61.9191 14.9258 59.6633C12.8574 57.4076 11.6484 54.4115 11.5218 51.227C11.3976 48.1099 12.3157 45.0761 14.1092 42.6677L15.5754 44.2667C12.6612 48.3714 12.9274 54.3122 16.3798 58.0774C18.1938 60.0555 20.6052 61.145 23.1703 61.145C25.3248 61.145 27.3694 60.3739 29.0439 58.9556L30.5095 60.554C28.3011 62.51 25.5193 63.5109 22.6612 63.3758Z" fill="white"/>
<path d="M19.2469 53.245C19.4052 53.245 19.5659 53.2112 19.7208 53.1397L20.0019 53.0101C20.6211 52.7243 20.911 51.9452 20.6488 51.2697C20.387 50.5942 19.6723 50.2782 19.0531 50.5641L18.772 50.6937C18.1528 50.9795 17.8629 51.7586 18.1251 52.4341C18.3215 52.9406 18.7725 53.245 19.2469 53.245Z" fill="white"/>
<path d="M21.5543 56.1742C21.7092 56.2458 21.8699 56.2796 22.0283 56.2796C22.5027 56.2796 22.9536 55.9752 23.1502 55.4688L23.269 55.1623C23.5311 54.4868 23.2414 53.7076 22.6222 53.4218C22.0032 53.1359 21.2885 53.4517 21.0263 54.1272L20.9075 54.4337C20.6454 55.109 20.9351 55.8883 21.5543 56.1742Z" fill="white"/>
<path d="M49.8712 51.5222C52.2787 51.5222 54.2373 49.3862 54.2373 46.7605C54.2373 44.1349 52.2789 41.9988 49.8712 41.9988C47.4635 41.9988 45.5051 44.1349 45.5051 46.7605C45.5051 49.3862 47.4637 51.5222 49.8712 51.5222ZM49.8712 44.6549C50.9359 44.6549 51.802 45.5995 51.802 46.7607C51.802 47.9219 50.9359 48.8665 49.8712 48.8665C48.8065 48.8665 47.9403 47.9219 47.9403 46.7607C47.9403 45.5995 48.8067 44.6549 49.8712 44.6549Z" fill="white"/>
<path d="M28.9653 49.6066H28.9822H28.988C29.6577 49.6066 30.2023 49.0163 30.2055 48.2848C30.2088 47.5515 29.6662 46.954 28.9936 46.9507H28.9767C28.9747 46.9507 28.9729 46.9507 28.9708 46.9507C28.3011 46.9507 27.7566 47.541 27.7534 48.2725C27.7501 49.0058 28.2927 49.6031 28.9653 49.6066Z" fill="white"/>
<path d="M33.55 49.6066H33.5668H33.5727C34.2424 49.6066 34.7869 49.0163 34.7902 48.2848C34.7934 47.5515 34.2508 46.954 33.5782 46.9507H33.5613C33.5594 46.9507 33.5576 46.9507 33.5555 46.9507C32.8858 46.9507 32.3413 47.541 32.338 48.2725C32.3349 49.0058 32.8773 49.6031 33.55 49.6066Z" fill="white"/>
<path d="M18.0853 68.8892H18.0684C18.0665 68.8892 18.0647 68.8892 18.0626 68.8892C17.3929 68.8892 16.8483 69.4795 16.8451 70.2109C16.8419 70.9443 17.3844 71.5417 18.0571 71.5451H18.0739H18.0798C18.7495 71.5451 19.294 70.9548 19.2973 70.2233C19.3003 69.4899 18.7579 68.8927 18.0853 68.8892Z" fill="white"/>
</svg>
