<svg width="165" height="121" viewBox="0 0 165 121" fill="none" xmlns="http://www.w3.org/2000/svg">
<g clip-path="url(#clip0)">
<path d="M98.782 8.04836C98.703 6.96347 97.7923 6.15015 96.7472 6.23232C95.7025 6.31427 94.9191 7.26009 94.9981 8.34498C95.4028 13.909 94.8294 22.0243 89.7987 29.089C84.7611 36.1637 77.616 38.625 73.7773 39.9475C68.0928 41.9054 62.8745 42.4155 58.0344 42.2837C58.4585 41.3335 58.6971 40.276 58.6971 39.1613C58.6971 35.6911 56.4003 32.7672 53.3023 31.9422V29.3737H63.433C67.2693 29.3737 70.39 26.1333 70.39 22.1505V20.0493C70.39 18.9612 69.5406 18.0795 68.4928 18.0795H59.2592L63.0558 5.36493C63.4024 4.20418 63.203 2.97719 62.5085 1.99905C61.814 1.02092 60.7445 0.459978 59.574 0.459978H49.5075C48.4597 0.459978 47.6103 1.34166 47.6103 2.42982C47.6103 3.51799 48.4597 4.39967 49.5075 4.39967H59.3713L55.2866 18.0797H47.464L41.8741 1.76892C41.523 0.74396 40.4373 0.209709 39.4505 0.57329C38.4631 0.938042 37.9479 2.06484 38.299 3.0898L43.4363 18.0793H34.4672C33.4194 18.0793 32.57 18.9609 32.57 20.0491V22.1503C32.57 26.1331 35.6907 29.3734 39.527 29.3734H49.508V32.0096C46.5275 32.9151 44.3432 35.7777 44.3432 39.1613C44.3432 39.7099 44.402 40.2441 44.5112 40.7592C36.9765 39.6553 30.4245 39.1197 25.0202 44.3114C23.5493 45.7248 20.0777 49.6256 19.6116 55.3087C19.58 55.6936 18.9214 64.7871 26.0114 69.7197C28.8354 71.6844 31.7639 72.2292 34.1428 72.2292C35.0925 72.2292 35.9539 72.1423 36.6865 72.0243C37.2369 73.6685 38.3441 75.0435 39.7728 75.9064C32.7549 79.952 27.9939 87.7262 27.9939 96.6345C27.9939 101.044 29.1768 105.327 31.3699 109.032H26.0324C21.1341 109.032 17.149 113.17 17.149 118.256V118.357C17.149 119.445 17.9985 120.327 19.0463 120.327H83.9139C84.9618 120.327 85.8112 119.445 85.8112 118.357V118.256C85.8112 113.17 81.8264 109.032 76.9279 109.032H36.0026C33.2796 105.529 31.7884 101.16 31.7884 96.6345C31.7884 85.7433 40.3227 76.8825 50.8127 76.8825C61.3026 76.8825 69.8371 85.7433 69.8371 96.6345C69.8371 98.7086 69.5296 100.751 68.9226 102.704C68.601 103.739 69.1487 104.849 70.1461 105.183C71.1436 105.517 72.2124 104.948 72.5342 103.912C73.2623 101.568 73.6317 99.1192 73.6317 96.6343C73.6317 87.9931 69.1521 80.419 62.4783 76.2801C64.9359 75.1645 66.6587 72.6174 66.6587 69.6591C66.6587 66.4084 64.5792 63.6531 61.729 62.7499C61.2438 59.5001 59.3531 56.7279 56.725 55.1212C57.8784 53.7985 58.5819 52.0456 58.5819 50.1252C58.5819 48.6854 58.1855 47.3404 57.5013 46.1996C62.8003 46.3787 68.6436 45.8666 74.9717 43.687C78.9076 42.3313 87.0972 39.5099 92.8496 31.4316C98.8758 22.969 99.1531 13.1486 98.782 8.04836ZM35.0988 112.972C35.107 112.972 35.1148 112.973 35.123 112.973C35.1324 112.973 35.1417 112.972 35.1511 112.972H76.9283C79.1007 112.972 80.9596 114.392 81.6881 116.386H21.2726C22.0011 114.392 23.86 112.972 26.0324 112.972H35.0988ZM39.5268 25.4338C37.7833 25.4338 36.3645 23.9607 36.3645 22.1505V22.0192H46.1252H56.6848H66.5955V22.1505C66.5955 23.9609 65.177 25.4338 63.4333 25.4338H39.5268ZM51.0481 35.6873C51.164 35.7103 51.2831 35.7234 51.4053 35.7234C51.559 35.7234 51.7079 35.7023 51.8513 35.6665C53.5614 35.8397 54.9028 37.3404 54.9028 39.1611C54.9028 40.3209 54.3558 41.3482 53.5185 41.988C51.9498 41.8314 50.4221 41.6308 48.9314 41.4166C48.4372 40.806 48.1379 40.0194 48.1379 39.1611C48.1377 37.3912 49.4063 35.927 51.0481 35.6873ZM51.4053 46.6125C53.2705 46.6125 54.7878 48.1879 54.7878 50.1245C54.7878 52.0609 53.2705 53.6362 51.4053 53.6362C49.5402 53.6365 48.0229 52.0609 48.0229 50.1245C48.0229 48.1881 49.5402 46.6125 51.4053 46.6125ZM36.475 68.061C34.656 68.4052 31.2479 68.6196 28.1238 66.4461C22.8713 62.7918 23.3867 55.7131 23.3926 55.6419C23.7457 51.3316 26.4509 48.3038 27.5973 47.2025C32.1134 42.8636 37.8678 43.7334 45.8323 44.9363C45.9568 44.9552 46.0831 44.9742 46.2084 44.9929C44.9827 46.3304 44.2282 48.1371 44.2282 50.1245C44.2282 52.0737 44.9536 53.8495 46.1374 55.1786C43.5598 56.7937 41.7102 59.539 41.2308 62.7489C38.8622 63.4997 37.0277 65.5302 36.475 68.061ZM59.7019 66.3756C61.4456 66.3756 62.8641 67.8484 62.8641 69.6588C62.8641 71.4693 61.4456 72.9421 59.7019 72.9421H43.2581C41.5144 72.9421 40.0959 71.4693 40.0959 69.6588C40.0959 67.8484 41.5144 66.3756 43.2581 66.3756H59.7019ZM57.7776 62.4357H45.1829C45.9992 59.6272 48.5129 57.5764 51.4801 57.5764C54.4473 57.5764 56.9608 59.6277 57.7776 62.4357Z" fill="white"/>
</g>
<g clip-path="url(#clip1)">
<path d="M106.545 110.738C106.545 116.025 110.489 120.326 115.337 120.326H146.987C151.834 120.326 155.778 116.025 155.778 110.738V108.82H147.664C148.591 107.468 149.201 105.833 149.368 104.035L149.525 102.522C149.72 102.447 149.925 102.369 150.14 102.286C154.569 100.594 162.811 97.4437 162.811 87.5275C162.811 79.4865 157.513 78.192 152.071 78.0309L152.472 74.1753H109.851L112.955 104.035C113.122 105.834 113.733 107.469 114.66 108.82H106.545V110.738ZM157.54 83.0171C158.407 83.5678 159.295 84.5343 159.295 87.5275C159.295 93.7673 154.992 96.278 149.966 98.2813L151.673 81.8588C154.568 81.9297 156.401 82.2949 157.54 83.0171ZM127.645 88.3928V97.3145H124.129V88.3928L125.887 86.4752L127.645 88.3928ZM116.453 103.64L113.789 78.0104H124.129V82.969L120.612 86.8043V101.15H131.162V86.8043L127.645 82.969V78.0104H148.534L145.87 103.64C145.6 106.593 143.343 108.82 140.622 108.82H121.702C118.98 108.82 116.724 106.593 116.453 103.64ZM151.96 112.656C151.234 114.888 149.279 116.491 146.986 116.491H115.337C113.044 116.491 111.089 114.888 110.363 112.656H151.96Z" fill="white"/>
<path d="M123.402 57.9578L121.338 54.8525C119.789 56.0773 118.953 57.3983 118.781 58.8907C118.523 61.1371 119.849 62.8746 121.019 64.4076C121.696 65.2947 122.538 66.3987 122.47 66.9938C122.451 67.1642 122.301 67.6426 121.338 68.4038L123.402 71.5091C124.951 70.2843 125.788 68.9633 125.959 67.4709C126.218 65.2245 124.891 63.487 123.722 61.954C123.044 61.0669 122.202 59.9629 122.27 59.3678C122.29 59.1974 122.439 58.719 123.402 57.9578Z" fill="white"/>
<path d="M133.952 57.9578L131.888 54.8525C130.339 56.0773 129.502 57.3983 129.331 58.8907C129.073 61.1371 130.399 62.8746 131.569 64.4076C132.246 65.2947 133.088 66.3987 133.02 66.9938C133 67.1642 132.851 67.6426 131.888 68.4038L133.952 71.5091C135.501 70.2843 136.338 68.9633 136.509 67.4709C136.767 65.2245 135.441 63.487 134.271 61.954C133.594 61.0669 132.752 59.9629 132.82 59.3678C132.84 59.1974 132.989 58.719 133.952 57.9578Z" fill="white"/>
<path d="M144.502 57.9578L142.438 54.8525C140.889 56.0773 140.052 57.3983 139.881 58.8907C139.623 61.1371 140.949 62.8746 142.119 64.4076C142.796 65.2947 143.638 66.3987 143.57 66.9938C143.55 67.1642 143.401 67.6426 142.438 68.4038L144.502 71.5091C146.051 70.2843 146.888 68.9633 147.059 67.4709C147.317 65.2245 145.991 63.487 144.821 61.954C144.144 61.0669 143.302 59.9629 143.37 59.3678C143.39 59.1974 143.539 58.719 144.502 57.9578Z" fill="white"/>
</g>
<defs>
<clipPath id="clip0">
<rect width="115.45" height="119.867" fill="white" transform="translate(0.294434 0.458984)"/>
</clipPath>
<clipPath id="clip1">
<rect width="60.0341" height="65.4736" fill="white" transform="translate(104.661 54.8525)"/>
</clipPath>
</defs>
</svg>
