<svg width="91" height="71" viewBox="0 0 91 71" fill="none" xmlns="http://www.w3.org/2000/svg">
<path d="M27.7771 46.6836H24.8698C24.8698 53.8454 29.331 60.4165 35.9741 63.0309L37.0337 60.3068C31.4969 58.1267 27.7771 52.6523 27.7771 46.6836Z" fill="white"/>
<path d="M42.3133 64.2299V61.3055C41.4295 61.3055 40.5413 61.2236 39.6764 61.0642L39.1517 63.9403C40.1881 64.1334 41.2536 64.2299 42.3133 64.2299Z" fill="white"/>
<path d="M33.5916 26.213H59.7568C62.1611 26.213 64.1177 24.2449 64.1177 21.8264C64.1177 19.408 62.1611 17.4399 59.7568 17.4399H52.4887V14.5155C52.4887 11.2899 49.8809 8.66675 46.6742 8.66675C43.4675 8.66675 40.8597 11.2899 40.8597 14.5155V17.4399H33.5916C31.1873 17.4399 29.2307 19.408 29.2307 21.8264C29.2307 24.2449 31.1873 26.213 33.5916 26.213ZM43.7669 14.5155C43.7669 12.9027 45.0708 11.5911 46.6742 11.5911C48.2775 11.5911 49.5814 12.9027 49.5814 14.5155V17.4399H43.7669V14.5155ZM33.5916 20.3643H59.7568C60.5592 20.3643 61.2105 21.0193 61.2105 21.8264C61.2105 22.6336 60.5592 23.2886 59.7568 23.2886H33.5916C32.7892 23.2886 32.1379 22.6336 32.1379 21.8264C32.1379 21.0193 32.7892 20.3643 33.5916 20.3643Z" fill="white"/>
<path d="M45.2206 55.4569H48.1278H49.5814C56.7958 55.4569 62.6641 49.5541 62.6641 42.2972V37.9106H58.3032C53.2388 37.9106 48.8474 40.8248 46.6742 45.0681C44.501 40.8248 40.1096 37.9106 35.0452 37.9106H30.6843V42.2972C30.6843 49.5541 36.5526 55.4569 43.7669 55.4569H45.2206ZM51.1412 52.3995C54.9831 49.2411 57.7581 46.2612 59.6013 44.0255C58.8672 48.336 55.4483 51.7283 51.1412 52.3995ZM58.3032 40.835H58.3991C56.6213 43.157 53.2736 47.0201 48.1278 51.0689C48.1293 45.4263 52.6936 40.835 58.3032 40.835ZM35.0452 40.835C40.6547 40.835 45.2191 45.4263 45.2206 51.0689C40.0747 47.0201 36.727 43.157 34.9492 40.835H35.0452ZM33.7485 44.0255C35.5903 46.2597 38.3667 49.2411 42.2072 52.3995C37.9001 51.7283 34.4812 48.336 33.7485 44.0255Z" fill="white"/>
<path d="M72.8394 27.6752C70.5369 27.6752 68.3245 28.1387 66.2313 29.0043C65.1178 28.0334 63.9084 27.1605 62.6059 26.406L61.1552 28.9414C67.4669 32.5925 71.3858 39.3917 71.3858 46.6836C71.3858 57.9717 62.257 67.1543 51.0351 67.1543H42.3133C31.0913 67.1543 21.9625 57.9717 21.9625 46.6836C21.9625 39.3917 25.8815 32.5925 32.1917 28.9429L30.741 26.4075C26.2478 29.0072 22.8173 33.0063 20.8694 37.6678L19.4085 36.1983C17.3051 34.0825 16.148 31.2707 16.148 28.2805C16.148 26.5566 15.4808 24.9365 14.2685 23.717C13.0562 22.4976 11.4455 21.8264 9.73172 21.8264H0.158142V30.5996H6.11074L7.10357 40.5717C7.34342 42.9872 8.1778 45.334 9.51804 47.3577C11.963 51.0483 15.8747 53.4068 20.1978 53.8922C23.2272 63.2736 31.9896 70.0787 42.3133 70.0787H51.0351C57.9441 70.0787 64.1424 67.0154 68.4059 62.1858C69.8479 62.5659 71.3379 62.7677 72.8394 62.7677C82.4581 62.7677 90.283 54.8967 90.283 45.2214C90.283 35.5461 82.4581 27.6752 72.8394 27.6752ZM19.439 50.8026C16.401 50.1739 13.6958 48.3885 11.9369 45.7361C10.8597 44.1102 10.1896 42.224 9.99628 40.2822L8.74181 27.6752H3.06539V24.7508H9.73172C10.6693 24.7508 11.5502 25.1178 12.2131 25.7846C12.8759 26.4513 13.2408 27.3389 13.2408 28.2805C13.2408 32.0515 14.7002 35.5988 17.3516 38.2643L19.8272 40.7545C19.3242 42.6685 19.0553 44.6585 19.0553 46.6836C19.0553 48.0917 19.2006 49.4633 19.439 50.8026ZM72.8394 59.8433C72.0167 59.8433 71.2041 59.7512 70.4003 59.6138C71.2652 58.308 71.9949 56.9073 72.588 55.4348C72.6723 55.4378 72.7551 55.4568 72.8394 55.4568C78.449 55.4568 83.0148 50.864 83.0148 45.2214C83.0148 40.2061 79.4535 35.9629 74.5446 35.1294L74.062 38.0143C77.5652 38.608 80.1076 41.6405 80.1076 45.2214C80.1076 49.0085 77.2178 52.0967 73.5459 52.4607C74.0169 50.6096 74.2931 48.681 74.2931 46.6836C74.2931 40.9533 72.178 35.492 68.5135 31.2809C69.9046 30.8437 71.3466 30.5996 72.8394 30.5996C80.8547 30.5996 87.3757 37.1589 87.3757 45.2214C87.3757 53.284 80.8547 59.8433 72.8394 59.8433Z" fill="white"/>
<path d="M3.49131 19.9358L5.54673 17.8683L4.09311 16.4061C3.43025 15.7393 3.06539 14.8518 3.06539 13.9101V13.6586C3.06539 12.7155 3.43025 11.8295 4.09311 11.1627C5.30543 9.94323 5.97265 8.32312 5.97265 6.5992V6.3477C5.97265 4.62378 5.30543 3.00368 4.09311 1.78421L2.63948 0.322021L0.584055 2.38956L2.03768 3.85175C2.70053 4.5185 3.06539 5.40605 3.06539 6.3477V6.5992C3.06539 7.54231 2.70053 8.4284 2.03768 9.09516C0.825356 10.3146 0.158142 11.9347 0.158142 13.6586V13.9101C0.158142 15.6341 0.825356 17.2542 2.03768 18.4736L3.49131 19.9358Z" fill="white"/>
<path d="M12.213 19.9358L14.2685 17.8683L12.8148 16.4061C12.152 15.7393 11.7871 14.8518 11.7871 13.9101V13.6586C11.7871 12.7155 12.152 11.8295 12.8148 11.1627C14.0272 9.94323 14.6944 8.32312 14.6944 6.5992V6.3477C14.6944 4.62378 14.0272 3.00368 12.8148 1.78421L11.3612 0.322021L9.3058 2.38956L10.7594 3.85175C11.4223 4.5185 11.7871 5.40605 11.7871 6.3477V6.5992C11.7871 7.54231 11.4223 8.4284 10.7594 9.09516C9.5471 10.3146 8.87988 11.9347 8.87988 13.6586V13.9101C8.87988 15.6341 9.5471 17.2542 10.7594 18.4736L12.213 19.9358Z" fill="white"/>
</svg>
