<svg width="55" height="55" viewBox="0 0 55 55" fill="none" xmlns="http://www.w3.org/2000/svg">
<path fill-rule="evenodd" clip-rule="evenodd" d="M45.9954 17.5063C45.823 17.3283 45.598 17.2102 45.3537 17.1694C44.9265 17.0618 44.4817 17.0446 44.0475 17.119L38.1576 17.1602C38.0208 17.1433 37.8824 17.1433 37.7454 17.1602C37.6585 17.1661 37.5733 17.1871 37.4933 17.2221C37.4475 17.2427 37.4016 17.2611 37.3787 17.2725L37.3097 17.3344C37.2187 17.3887 37.1406 17.4622 37.0808 17.5498C36.9882 17.6536 36.9181 17.7753 36.8745 17.9073C36.2622 19.4969 35.5268 21.0363 34.6745 22.5113C34.1704 23.3576 33.7118 24.091 33.2993 24.7113C32.9792 25.1988 32.6189 25.6585 32.2225 26.0863C31.9818 26.3419 31.7215 26.5779 31.4433 26.7922C31.375 26.8632 31.2932 26.92 31.2027 26.9595C31.1124 26.9986 31.015 27.0197 30.9162 27.0213L30.5725 26.9388C30.3811 26.8114 30.2239 26.6391 30.1144 26.437C29.9817 26.1906 29.9033 25.9186 29.885 25.6395C29.8391 25.3186 29.8162 25.0436 29.7933 24.8099C29.7704 24.5761 29.7933 24.2507 29.8162 23.8267C29.8391 23.4028 29.8389 23.1186 29.8389 22.9674C29.8389 22.4494 29.8389 21.8857 29.8618 21.2784C29.8847 20.6711 29.9079 20.1898 29.9079 19.8346C29.9079 19.4794 29.9308 19.1058 29.9308 18.7094C29.9374 18.3978 29.9143 18.0862 29.8618 17.779C29.8162 17.5539 29.747 17.3343 29.6558 17.1236C29.5632 16.9201 29.4115 16.7492 29.2204 16.6331C29.0137 16.5088 28.7895 16.4154 28.5558 16.3558C27.6428 16.1738 26.714 16.0847 25.7829 16.09C24.1395 15.9492 22.4843 16.1155 20.9017 16.5804C20.5972 16.7208 20.3299 16.9313 20.1223 17.1946C19.8702 17.4948 19.8246 17.6529 20.0079 17.685C20.3423 17.7078 20.6686 17.7975 20.9677 17.9486C21.2669 18.0998 21.5329 18.3094 21.7496 18.565L21.864 18.8102C22.0143 19.1058 22.1149 19.424 22.162 19.7521C22.2627 20.2445 22.3242 20.7441 22.3455 21.2463C22.4147 22.0974 22.4147 22.9527 22.3455 23.8038C22.2767 24.5126 22.2078 25.0649 22.139 25.4607C22.1111 25.7964 22.0176 26.1232 21.864 26.4232C21.8007 26.582 21.7241 26.7353 21.6349 26.8815C21.6025 26.9219 21.564 26.9565 21.5205 26.9847C21.3455 27.0539 21.1585 27.0889 20.9702 27.0878C20.7181 27.0612 20.4793 26.9618 20.2829 26.8013C19.9705 26.5724 19.6859 26.3079 19.435 26.013C19.0659 25.57 18.7288 25.1014 18.4265 24.6105C18.0598 24.0101 17.6932 23.2997 17.2807 22.4815L16.9598 21.8879C16.7536 21.506 16.4786 20.9499 16.1348 20.2196C15.7682 19.4893 15.4475 18.7835 15.1725 18.1021C15.0945 17.8337 14.9238 17.6015 14.6911 17.4467L14.5996 17.3848C14.4938 17.3109 14.378 17.2523 14.2558 17.2106C14.109 17.1478 13.9549 17.1032 13.7973 17.0777L8.18284 17.119C7.97131 17.0929 7.75672 17.1143 7.55453 17.1817C7.35234 17.2491 7.16763 17.3608 7.01406 17.5086L6.94527 17.63C6.89185 17.7306 6.86822 17.8442 6.87672 17.9577C6.88823 18.1464 6.92666 18.3324 6.99112 18.51C7.81612 20.4335 8.70999 22.2882 9.67249 24.0743C10.635 25.8618 11.4599 27.3009 12.1703 28.3918C12.8807 29.4826 13.6142 30.5138 14.3476 31.4809C15.0809 32.448 15.5619 33.0713 15.814 33.344C16.0661 33.6168 16.2267 33.8207 16.3642 33.9582L16.8913 34.4486C17.3388 34.8801 17.8218 35.2734 18.3351 35.6243C19.0061 36.1103 19.702 36.5609 20.4203 36.974C21.2721 37.4482 22.1809 37.8126 23.1245 38.058C24.0928 38.3309 25.099 38.4446 26.1039 38.3949H28.4641C28.8688 38.3873 29.2552 38.223 29.5414 37.9365L29.6329 37.8334C29.6927 37.7101 29.7463 37.5839 29.7933 37.4553C29.841 37.271 29.8639 37.0815 29.8618 36.8915C29.8387 36.3603 29.8772 35.828 29.9766 35.3057C30.0516 34.9365 30.1749 34.579 30.3433 34.2424C30.4547 34.0189 30.6016 33.8154 30.7787 33.6397C30.8793 33.5253 30.995 33.4252 31.1225 33.3418C31.174 33.3138 31.2274 33.2902 31.2826 33.2707C31.4887 33.2276 31.702 33.2338 31.9051 33.2888C32.1083 33.3438 32.2953 33.4458 32.4516 33.587C32.9111 33.9305 33.3266 34.3292 33.6891 34.774C34.0787 35.2438 34.537 35.7732 35.087 36.3599C35.5227 36.8437 36.0065 37.282 36.5308 37.6684L36.9433 37.9136C37.2735 38.1109 37.6278 38.2652 37.9975 38.372C38.3644 38.503 38.7587 38.5386 39.1433 38.4751L44.3912 38.3926C44.8044 38.415 45.216 38.3264 45.5831 38.1359C45.823 38.0216 46.011 37.821 46.11 37.5745C46.1549 37.3474 46.1549 37.1138 46.11 36.887C46.0838 36.7013 46.0375 36.5194 45.9725 36.3438C45.9337 36.2545 45.8879 36.1688 45.835 36.0872C44.7558 34.3973 43.4356 32.874 41.9162 31.5657C41.8974 31.5274 41.8646 31.4979 41.8245 31.4832C41.3662 31.0599 40.9766 30.6985 40.6558 30.3993C40.3808 30.1504 40.1553 29.8518 39.9912 29.5193C39.8869 29.2889 39.795 29.0534 39.7162 28.8134C39.705 28.5073 39.7934 28.2057 39.9683 27.954C40.1514 27.6027 40.3581 27.2642 40.587 26.9411C40.7933 26.6547 41.1829 26.1643 41.7329 25.4676C42.2829 24.7709 42.7183 24.1659 43.062 23.7282C45.4225 20.5909 46.4308 18.5857 46.11 17.7125L45.9954 17.5063Z" fill="white"/>
</svg>
